<?xml version="1.0" encoding="UTF-8"?>
<svg id="Layer_2" data-name="Layer 2" xmlns="http://www.w3.org/2000/svg" viewBox="0 0 411.49 73.99">
  <g id="Layer_1-2" data-name="Layer 1">
    <g>
      <path d="M91.28,43.15v30.84h-11.9V1.55h22.56c13.04,0,24.22,6.83,24.22,19.77,0,16.35-10.97,21.84-24.01,21.84h-10.87ZM91.28,31.46h10.87c5.48,0,11.9-1.97,11.9-9.11s-6.42-9.11-11.9-9.11h-10.87v18.21Z"/>
      <path d="M236.58,37.77l25.46,36.22h-15.21l-17.9-26.7-17.8,26.7h-15.21l25.46-36.22L195.91,1.55h15.21l17.8,26.39L246.83,1.55h15.21l-25.46,36.22Z"/>
      <polygon points="33.12 0 0 73.99 12.11 73.99 33.12 27.84 54.12 73.99 66.23 73.99 33.12 0"/>
      <polygon points="139.28 73.88 177.36 73.88 182.48 62.76 139.28 62.76 139.28 73.88"/>
      <polygon points="139.28 43.34 172.24 43.34 177.36 32.21 139.28 32.21 139.28 43.34"/>
      <polygon points="139.28 12.69 177.36 12.69 182.48 1.57 139.28 1.57 139.28 12.69"/>
      <path d="M275.91,12.14h14.08v13.68h-14.08v-13.68ZM275.91,49.73h14.08v13.67h-14.08v-13.67Z"/>
      <g>
        <polygon points="405.93 1.61 367.85 1.61 362.73 12.74 405.93 12.74 405.93 1.61"/>
        <polygon points="405.93 32.21 372.96 32.21 367.85 43.34 405.93 43.34 405.93 32.21"/>
        <polygon points="405.93 62.81 367.85 62.81 362.73 73.93 405.93 73.93 405.93 62.81"/>
        <rect x="375.34" y="32.21" width="61.19" height="11.12" transform="translate(443.71 -368.16) rotate(90)"/>
      </g>
      <g>
        <polygon points="313.1 73.93 351.18 73.93 356.3 62.81 313.1 62.81 313.1 73.93"/>
        <polygon points="313.1 43.34 346.07 43.34 351.18 32.21 313.1 32.21 313.1 43.34"/>
        <polygon points="313.1 12.74 351.18 12.74 356.3 1.61 313.1 1.61 313.1 12.74"/>
        <rect x="282.5" y="32.21" width="61.19" height="11.12" transform="translate(275.32 350.87) rotate(-90)"/>
      </g>
    </g>
  </g>
</svg>