<?xml version="1.0" encoding="UTF-8"?>
<svg id="Layer_2" data-name="Layer 2" xmlns="http://www.w3.org/2000/svg" viewBox="0 0 416.41 73.99">
  <g id="Layer_2-2" data-name="Layer 2">
    <path d="M91.28,43.15v30.84h-11.9V1.55h22.56c13.04,0,24.22,6.83,24.22,19.77,0,16.35-10.97,21.84-24.01,21.84h-10.87,0ZM91.28,31.46h10.87c5.48,0,11.9-1.97,11.9-9.11s-6.42-9.11-11.9-9.11h-10.87v18.21h0Z"/>
    <path d="M236.58,37.77l25.46,36.22h-15.21l-17.9-26.7-17.8,26.7h-15.21l25.46-36.22L195.91,1.55h15.21l17.8,26.39L246.83,1.55h15.21l-25.46,36.22h0Z"/>
    <polygon points="33.12 0 0 73.99 12.11 73.99 33.12 27.84 54.12 73.99 66.23 73.99 33.12 0"/>
    <polygon points="139.28 73.88 177.36 73.88 182.48 62.76 139.28 62.76 139.28 73.88"/>
    <polygon points="139.28 43.34 172.24 43.34 177.36 32.21 139.28 32.21 139.28 43.34"/>
    <polygon points="139.28 12.69 177.36 12.69 182.48 1.57 139.28 1.57 139.28 12.69"/>
    <polygon points="405.28 .83 367.2 .83 362.08 11.96 405.28 11.96 405.28 .83"/>
    <polygon points="405.28 31.43 372.31 31.43 367.2 42.56 405.28 42.56 405.28 31.43"/>
    <polygon points="405.28 62.04 367.2 62.04 362.08 73.15 405.28 73.15 405.28 62.04"/>
    <rect x="405.29" y="11.96" width="11.12" height="50.07"/>
    <polygon points="312.45 73.15 350.53 73.15 355.65 62.04 312.45 62.04 312.45 73.15"/>
    <polygon points="312.45 42.56 345.42 42.56 350.53 31.43 312.45 31.43 312.45 42.56"/>
    <polygon points="312.45 11.96 350.53 11.96 355.65 .83 312.45 .83 312.45 11.96"/>
    <rect x="301.32" y="11.96" width="11.12" height="50.07"/>
    <rect x="276.12" y="11.96" width="11.12" height="11.12"/>
    <rect x="276.12" y="50.92" width="11.12" height="11.12"/>
  </g>
</svg>