<svg xmlns="http://www.w3.org/2000/svg" id="a" viewBox="0 0 495.65 112.61"><path d="m85.08,24.1c3.17,7.85,4.75,18.59,4.75,32.2s-1.58,24.36-4.75,32.21c-3.17,7.85-8.32,13.54-15.44,17.08-7.12,3.53-16.82,5.3-29.09,5.3H0v-17.15h40.55c6.86,0,12.27-1.2,16.22-3.59,3.95-2.39,6.78-6.29,8.5-11.7,1.72-5.4,2.57-12.79,2.57-22.15s-.85-16.73-2.57-22.14c-1.72-5.41-4.55-9.31-8.5-11.7-3.95-2.39-9.36-3.59-16.22-3.59h-18.56v67.53H0V1.72h40.55c12.27,0,21.96,1.77,29.09,5.3,7.12,3.53,12.27,9.23,15.44,17.08m380.21,26.72L495.65,1.72h-24.33l-18.26,29.55,12.23,19.54Zm.2,14.23l-23.89-38.73-15.2-24.6h-24.8l33.07,53.5-34.62,55.68h24.48l22.3-36.03,22.3,36.03h24.96l-28.53-45.89-.07.04Zm-129.61-7.27l2.8-7.13c-7.08-1.81-12.48-4.1-16.07-6.89-4.63-3.59-6.94-8.39-6.94-14.43,0-6.76,2.65-12.22,7.95-16.38,5.3-4.16,12.22-6.24,20.74-6.24,7.17,0,13.39,1.3,18.64,3.89,5.25,2.6,9.38,6.35,12.4,11.23l5.77-4.53c-3.43-5.72-8.24-10.03-14.43-12.94-6.19-2.91-13.6-4.37-22.22-4.37-7.38,0-13.88,1.2-19.49,3.59-5.62,2.39-9.93,5.82-12.94,10.29-3.02,4.47-4.53,9.67-4.53,15.59,0,8.01,2.54,14.33,7.64,18.96,4.49,4.08,11.48,7.16,20.68,9.34m45.06,10.16c-2.45-3.69-6.47-6.76-12.08-9.21-2.51-1.09-5.56-2.13-8.99-3.13l-2.79,7.11c1.92.57,3.71,1.14,5.22,1.72,5.2,1.98,8.86,4.32,10.99,7.02,2.13,2.71,3.2,6.29,3.2,10.76,0,7.38-2.88,13.16-8.65,17.31-5.77,4.16-13.86,6.24-24.25,6.24-8.01,0-14.53-1.24-19.57-3.74-5.05-2.49-9.8-6.76-14.27-12.79l-5.61,4.99c4.99,6.55,10.58,11.26,16.77,14.11,6.19,2.86,13.86,4.29,23.01,4.29,13.1,0,23.16-2.63,30.18-7.88,7.02-5.25,10.53-12.76,10.53-22.54,0-5.82-1.23-10.58-3.66-14.27m-103.94,17.03c-.7,5.97-3.45,10.85-8.5,14.47-5.88,4.22-13.86,6.32-23.94,6.32s-18.04-2.13-23.86-6.39c-5.83-4.26-8.74-10.04-8.74-17.31V1.72h-8.11v80.32c0,9.46,3.64,16.92,10.92,22.38,7.27,5.46,17.2,8.18,29.79,8.18s22.53-2.72,29.87-8.18c6.55-4.88,10.16-11.38,10.85-19.46h-8.27ZM285.41,1.72h-8.11v61.71h8.11V1.72Zm-139.43,102.47c-9.15,0-15.91-2.07-20.28-6.24-4.36-4.15-6.55-10.6-6.55-19.34v-5.47h-.05v-33.67h.05v-5.62c0-8.73,2.16-15.15,6.47-19.26,4.31-4.11,11.1-6.16,20.35-6.16h37.9V1.72h-37.9c-11.86,0-20.64,2.63-26.36,7.88-5.72,5.25-8.58,13.34-8.58,24.25v44.76c0,10.92,2.86,19.03,8.58,24.33,5.71,5.3,14.5,7.95,26.36,7.95h38.99v-6.7h-38.99Zm29.63-51.31h-34.98v6.7h34.98v-6.7Z" style="stroke-width:0px;"></path></svg>